#N canvas -8 -8 1366 685 10;
#X obj 62 42 tgl 15 0 empty empty empty 17 7 0 10 -262144 -1 -1 1 1
;
#X msg 62 69 \; pd dsp \$1;
#X text 107 44 Liga/Desliga Som;
#X msg 148 188 start;
#X msg 147 215 stop;
#X obj 58 240 readsf~;
#X text 194 199 Abre a musica;
#X floatatom 135 255 5 0 0 0 - - -, f 5;
#X msg 57 158 open forrest_gump_theme.wav;
#X obj 57 285 lop~;
#X msg 436 194 start;
#X msg 435 221 stop;
#X obj 346 246 readsf~;
#X floatatom 421 271 5 0 0 0 - - -, f 5;
#X msg 345 164 open forrest_gump_theme.wav;
#X obj 347 292 hip~;
#X text 59 409 Baixa Frequencia;
#X text 343 406 Alta Frequencia;
#X msg 799 107 start;
#X msg 798 134 stop;
#X obj 709 159 readsf~;
#X obj 755 412 dac~;
#X msg 708 77 open forrest_gump_theme.wav;
#X obj 795 236 osc~ 2;
#X obj 755 306 *~;
#X obj 755 383 *~ 0.1;
#X obj 781 271 *~;
#X obj 846 277 hsl 100 15 0 1 0 0 empty empty empty -2 -8 0 10 -262144
-1 -1 8700 1;
#X text 736 442 mdularização;
#X text 846 298 0..1 profundidade;
#X obj 825 193 hsl 50 15 0 10 0 0 empty empty empty -2 -8 0 10 -262144
-1 -1 1100 1;
#X text 895 193 taxa 0..10;
#X obj 835 340 vsl 15 70 0 127 0 0 empty empty empty 0 -9 0 10 -262144
-1 -1 1500 1;
#X obj 58 371 dac~;
#X obj 58 342 *~ 0.1;
#X obj 138 299 vsl 15 70 0 127 0 0 empty empty empty 0 -9 0 10 -262144
-1 -1 1000 1;
#X obj 346 374 dac~;
#X obj 346 345 *~ 0.1;
#X obj 426 302 vsl 15 70 0 127 0 0 empty empty empty 0 -9 0 10 -262144
-1 -1 0 1;
#X connect 0 0 1 0;
#X connect 3 0 5 0;
#X connect 4 0 5 0;
#X connect 5 0 9 0;
#X connect 7 0 9 1;
#X connect 8 0 5 0;
#X connect 9 0 34 0;
#X connect 10 0 12 0;
#X connect 11 0 12 0;
#X connect 12 0 15 0;
#X connect 13 0 15 1;
#X connect 14 0 12 0;
#X connect 15 0 37 0;
#X connect 18 0 20 0;
#X connect 19 0 20 0;
#X connect 20 0 24 0;
#X connect 22 0 20 0;
#X connect 23 0 26 0;
#X connect 24 0 25 0;
#X connect 25 0 21 0;
#X connect 26 0 24 1;
#X connect 27 0 26 1;
#X connect 30 0 23 0;
#X connect 32 0 25 1;
#X connect 34 0 33 0;
#X connect 35 0 34 1;
#X connect 37 0 36 0;
#X connect 38 0 37 1;
